<svg width="43" height="10" viewBox="0 0 43 10" fill="none" xmlns="http://www.w3.org/2000/svg">
<path d="M6.936 1.452H4.2V9H2.928V1.452H0.18V0.383999H6.936V1.452ZM8.99981 3.678C9.25581 3.418 9.53781 3.208 9.84581 3.048C10.1578 2.888 10.5158 2.808 10.9198 2.808C11.2558 2.808 11.5498 2.864 11.8018 2.976C12.0578 3.088 12.2718 3.246 12.4438 3.45C12.6158 3.65 12.7458 3.892 12.8338 4.176C12.9218 4.46 12.9658 4.774 12.9658 5.118V9H11.7898V5.118C11.7898 4.682 11.6898 4.344 11.4898 4.104C11.2898 3.86 10.9838 3.738 10.5718 3.738C10.2718 3.738 9.98981 3.81 9.72581 3.954C9.46581 4.094 9.22381 4.286 8.99981 4.53V9H7.82981V0.144H8.99981V3.678ZM18.5827 5.274C18.5827 5.042 18.5487 4.828 18.4807 4.632C18.4167 4.436 18.3207 4.266 18.1927 4.122C18.0647 3.978 17.9087 3.866 17.7247 3.786C17.5407 3.706 17.3287 3.666 17.0887 3.666C16.5967 3.666 16.2087 3.808 15.9247 4.092C15.6447 4.376 15.4667 4.77 15.3907 5.274H18.5827ZM19.5487 8.13C19.4047 8.298 19.2387 8.444 19.0507 8.568C18.8627 8.688 18.6627 8.786 18.4507 8.862C18.2387 8.938 18.0187 8.994 17.7907 9.03C17.5667 9.066 17.3447 9.084 17.1247 9.084C16.7047 9.084 16.3147 9.014 15.9547 8.874C15.5987 8.73 15.2887 8.522 15.0247 8.25C14.7647 7.974 14.5607 7.634 14.4127 7.23C14.2687 6.822 14.1967 6.354 14.1967 5.826C14.1967 5.402 14.2627 5.008 14.3947 4.644C14.5267 4.276 14.7147 3.956 14.9587 3.684C15.2067 3.412 15.5087 3.198 15.8647 3.042C16.2207 2.886 16.6207 2.808 17.0647 2.808C17.4367 2.808 17.7787 2.87 18.0907 2.994C18.4067 3.114 18.6787 3.29 18.9067 3.522C19.1347 3.754 19.3127 4.04 19.4407 4.38C19.5727 4.72 19.6387 5.108 19.6387 5.544C19.6387 5.724 19.6187 5.846 19.5787 5.91C19.5387 5.97 19.4647 6 19.3567 6H15.3607C15.3727 6.364 15.4247 6.682 15.5167 6.954C15.6087 7.222 15.7347 7.446 15.8947 7.626C16.0587 7.806 16.2527 7.94 16.4767 8.028C16.7007 8.116 16.9507 8.16 17.2267 8.16C17.4867 8.16 17.7107 8.13 17.8987 8.07C18.0907 8.01 18.2547 7.946 18.3907 7.878C18.5307 7.806 18.6467 7.74 18.7387 7.68C18.8347 7.62 18.9187 7.59 18.9907 7.59C19.0867 7.59 19.1607 7.626 19.2127 7.698L19.5487 8.13ZM22.0002 4.074C22.1962 3.674 22.4322 3.36 22.7082 3.132C22.9842 2.904 23.3162 2.79 23.7042 2.79C23.8362 2.79 23.9602 2.806 24.0762 2.838C24.1962 2.866 24.3002 2.91 24.3882 2.97L24.3102 3.852C24.2822 3.96 24.2162 4.014 24.1122 4.014C24.0562 4.014 23.9722 4.004 23.8602 3.984C23.7482 3.96 23.6282 3.948 23.5002 3.948C23.3122 3.948 23.1462 3.976 23.0022 4.032C22.8582 4.084 22.7282 4.164 22.6122 4.272C22.5002 4.376 22.4002 4.506 22.3122 4.662C22.2242 4.814 22.1422 4.988 22.0662 5.184V9H20.8962V2.904H21.5682C21.6962 2.904 21.7822 2.928 21.8262 2.976C21.8742 3.02 21.9082 3.1 21.9282 3.216L22.0002 4.074ZM25.2908 9V2.904H25.9928C26.1568 2.904 26.2588 2.982 26.2988 3.138L26.3828 3.72C26.6068 3.452 26.8548 3.234 27.1268 3.066C27.4028 2.894 27.7248 2.808 28.0928 2.808C28.4968 2.808 28.8248 2.92 29.0768 3.144C29.3288 3.364 29.5128 3.664 29.6288 4.044C29.7168 3.828 29.8308 3.642 29.9708 3.486C30.1108 3.33 30.2668 3.202 30.4388 3.102C30.6108 3.002 30.7928 2.928 30.9848 2.88C31.1808 2.832 31.3788 2.808 31.5788 2.808C31.9028 2.808 32.1908 2.86 32.4428 2.964C32.6988 3.064 32.9148 3.212 33.0908 3.408C33.2668 3.604 33.4008 3.846 33.4928 4.134C33.5848 4.422 33.6308 4.75 33.6308 5.118V9H32.4548V5.118C32.4548 4.662 32.3548 4.318 32.1548 4.086C31.9588 3.854 31.6708 3.738 31.2908 3.738C31.1228 3.738 30.9628 3.768 30.8108 3.828C30.6588 3.884 30.5248 3.97 30.4088 4.086C30.2968 4.202 30.2068 4.346 30.1388 4.518C30.0748 4.69 30.0428 4.89 30.0428 5.118V9H28.8668V5.118C28.8668 4.646 28.7728 4.298 28.5848 4.074C28.3968 3.85 28.1208 3.738 27.7568 3.738C27.5048 3.738 27.2708 3.804 27.0548 3.936C26.8388 4.068 26.6408 4.248 26.4608 4.476V9H25.2908ZM38.4808 6.294C38.0048 6.31 37.6008 6.348 37.2688 6.408C36.9368 6.464 36.6668 6.54 36.4588 6.636C36.2508 6.732 36.1008 6.846 36.0088 6.978C35.9168 7.106 35.8708 7.25 35.8708 7.41C35.8708 7.562 35.8948 7.694 35.9428 7.806C35.9948 7.914 36.0628 8.004 36.1468 8.076C36.2348 8.144 36.3368 8.194 36.4528 8.226C36.5688 8.258 36.6948 8.274 36.8308 8.274C37.0108 8.274 37.1748 8.256 37.3228 8.22C37.4748 8.184 37.6168 8.134 37.7488 8.07C37.8808 8.002 38.0068 7.92 38.1268 7.824C38.2468 7.728 38.3648 7.618 38.4808 7.494V6.294ZM35.0488 3.756C35.3888 3.432 35.7568 3.19 36.1528 3.03C36.5528 2.87 36.9908 2.79 37.4668 2.79C37.8148 2.79 38.1228 2.848 38.3908 2.964C38.6588 3.076 38.8848 3.234 39.0688 3.438C39.2528 3.642 39.3908 3.886 39.4828 4.17C39.5788 4.454 39.6268 4.768 39.6268 5.112V9H39.1048C38.9888 9 38.9008 8.982 38.8408 8.946C38.7808 8.906 38.7328 8.834 38.6968 8.73L38.5708 8.196C38.4148 8.34 38.2608 8.468 38.1088 8.58C37.9568 8.688 37.7968 8.782 37.6288 8.862C37.4648 8.938 37.2888 8.996 37.1008 9.036C36.9128 9.076 36.7048 9.096 36.4768 9.096C36.2368 9.096 36.0108 9.064 35.7988 9C35.5908 8.932 35.4088 8.83 35.2528 8.694C35.0968 8.558 34.9728 8.388 34.8808 8.184C34.7928 7.98 34.7488 7.742 34.7488 7.47C34.7488 7.23 34.8128 7 34.9408 6.78C35.0728 6.556 35.2848 6.356 35.5768 6.18C35.8728 6.004 36.2568 5.86 36.7288 5.748C37.2048 5.636 37.7888 5.572 38.4808 5.556V5.112C38.4808 4.652 38.3828 4.308 38.1868 4.08C37.9908 3.852 37.7028 3.738 37.3228 3.738C37.0668 3.738 36.8508 3.77 36.6748 3.834C36.5028 3.898 36.3528 3.97 36.2248 4.05C36.1008 4.126 35.9908 4.196 35.8948 4.26C35.8028 4.324 35.7068 4.356 35.6068 4.356C35.5268 4.356 35.4568 4.334 35.3968 4.29C35.3408 4.246 35.2948 4.194 35.2588 4.134L35.0488 3.756ZM42.3931 0.144V9H41.2171V0.144H42.3931Z" fill="#9499C3"/>
</svg>
